<svg xmlns="http://www.w3.org/2000/svg" version="1.1" xmlns:xlink="http://www.w3.org/1999/xlink" xmlns:svgjs="http://svgjs.dev/svgjs" width="1500" height="1500" viewBox="0 0 1500 1500"><rect width="1500" height="1500" fill="#ffffff"></rect><g transform="matrix(0.6666666666666666,0,0,0.6666666666666666,249.39393939393938,615.3265823189946)"><svg viewBox="0 0 396 106" data-background-color="#ffffff" preserveAspectRatio="xMidYMid meet" height="401" width="1500" xmlns="http://www.w3.org/2000/svg" xmlns:xlink="http://www.w3.org/1999/xlink"><g id="tight-bounds" transform="matrix(1,0,0,1,0.2400000000000091,0.39918556428895613)"><svg viewBox="0 0 395.52 105.20162887142207" height="105.20162887142207" width="395.52"><g><svg viewBox="0 0 539.1003142964971 143.39156348373555" height="105.20162887142207" width="395.52"><g transform="matrix(1,0,0,1,143.58031429649702,19.817502623294857)"><svg viewBox="0 0 395.52000000000004 103.75655823714584" height="103.75655823714584" width="395.52000000000004"><g id="textblocktransform"><svg viewBox="0 0 395.52000000000004 103.75655823714584" height="103.75655823714584" width="395.52000000000004" id="textblock"><g><svg viewBox="0 0 395.52000000000004 103.75655823714584" height="103.75655823714584" width="395.52000000000004"><g transform="matrix(1,0,0,1,0,0)"><svg width="395.52000000000004" viewBox="2.5 -37.5 142.94 37.5" height="103.75655823714584" data-palette-color="#000000"><path d="M16.35-20.5L33.85-1.1Q34.05-0.85 34.58-0.9 35.1-0.95 35.15-0.95L35.15-0.95 35.15 0 23.85 0 23.85-0.95Q24.55-0.95 24.65-1.1 24.75-1.25 24.5-1.5L24.5-1.5 11.65-15.8 10-14.1 10-1.5Q10-1.25 10.38-1.1 10.75-0.95 11.1-0.95L11.1-0.95 11.1 0 2.5 0 2.5-0.95Q2.85-0.95 3.23-1.1 3.6-1.25 3.6-1.5L3.6-1.5 3.6-36Q3.6-36.25 3.23-36.4 2.85-36.55 2.5-36.55L2.5-36.55 2.5-37.5 11.1-37.5 11.1-36.55Q10.75-36.55 10.38-36.4 10-36.25 10-36L10-36 10-22.9 23.1-36.1Q23.2-36.2 23.2-36.3L23.2-36.3Q23.2-36.55 22.4-36.55L22.4-36.55 22.4-37.5 33.75-37.5 33.75-36.55 32.8-36.6Q32.35-36.6 32.1-36.45L32.1-36.45 16.35-20.5ZM42.75-27.2Q41.15-27.2 40.02-28.3 38.9-29.4 38.9-31.05L38.9-31.05Q38.9-32.6 40.02-33.73 41.15-34.85 42.75-34.85L42.75-34.85Q44.35-34.85 45.45-33.73 46.55-32.6 46.55-31.05L46.55-31.05Q46.55-29.4 45.45-28.3 44.35-27.2 42.75-27.2L42.75-27.2ZM39.5-21.5Q39.5-21.75 39.12-21.9 38.75-22.05 38.4-22.05L38.4-22.05 38.4-23 47-23 47-22.05Q46.65-22.05 46.27-21.9 45.9-21.75 45.9-21.5L45.9-21.5 45.9-1.5Q45.9-1.25 46.27-1.1 46.65-0.95 47-0.95L47-0.95 47 0 38.4 0 38.4-0.95Q38.75-0.95 39.12-1.1 39.5-1.25 39.5-1.5L39.5-1.5 39.5-21.5ZM89.45-13.45L89.45-1.5Q89.45-1.25 89.82-1.1 90.2-0.95 90.59-0.95L90.59-0.95 90.59 0 81.8 0 81.8-0.95Q82.2-0.95 82.57-1.1 82.95-1.25 82.95-1.5L82.95-1.5 82.95-11.9Q82.95-18.1 78.84-18.1L78.84-18.1Q76.84-18.1 75.75-16.45 74.65-14.8 74.65-11.5L74.65-11.5 74.65-1.5Q74.65-1.25 75.02-1.1 75.4-0.95 75.8-0.95L75.8-0.95 75.8 0 67.05 0 67.05-0.95Q67.45-0.95 67.82-1.1 68.2-1.25 68.2-1.5L68.2-1.5 68.2-11.9Q68.2-14.65 67.34-16.38 66.5-18.1 64.2-18.1L64.2-18.1Q62.4-18.1 61.32-16.78 60.25-15.45 60.05-12.8L60.05-12.8 60.05-1.5Q60.05-1.25 60.45-1.1 60.85-0.95 61.2-0.95L61.2-0.95 61.2 0 52.3 0 52.3-0.95Q52.65-0.95 53.05-1.1 53.45-1.25 53.45-1.5L53.45-1.5 53.45-21.5Q53.45-21.75 53.07-21.9 52.7-22.05 52.35-22.05L52.35-22.05 52.35-23 60.05-23 60.05-21.65Q62.05-23.5 65.15-23.5L65.15-23.5Q67.95-23.5 69.97-22.43 72-21.35 73.15-19.45L73.15-19.45Q74.05-21.3 75.92-22.4 77.8-23.5 80.15-23.5L80.15-23.5Q84.84-23.5 87.15-20.7 89.45-17.9 89.45-13.45L89.45-13.45ZM117.94-35.2L132.04-1.4Q132.19-0.95 133.24-0.95L133.24-0.95 133.24 0 123.09 0 123.09-0.95Q123.74-0.95 123.99-1.25 124.24-1.55 124.09-1.85L124.09-1.85 121.34-8.9 105.04-8.9 102.29-1.85 102.24-1.7Q102.24-1.4 102.52-1.18 102.79-0.95 103.24-0.95L103.24-0.95 103.24 0 93.39 0 93.39-0.95Q94.39-0.95 94.59-1.4L94.59-1.4 108.49-35.2Q108.64-35.5 108.64-35.75L108.64-35.75Q108.64-36.2 108.24-36.38 107.84-36.55 107.39-36.55L107.39-36.55 107.39-37.5 119.04-37.5 119.04-36.55Q118.59-36.55 118.19-36.38 117.79-36.2 117.79-35.75L117.79-35.75Q117.79-35.5 117.94-35.2L117.94-35.2ZM119.09-14.65L113.19-29.7 107.29-14.65 119.09-14.65ZM137.44-36Q137.44-36.25 137.04-36.4 136.64-36.55 136.24-36.55L136.24-36.55 136.24-37.5 145.44-37.5 145.44-36.55Q145.04-36.55 144.64-36.4 144.24-36.25 144.24-36L144.24-36 144.24-1.5Q144.24-1.25 144.64-1.1 145.04-0.95 145.44-0.95L145.44-0.95 145.44 0 136.24 0 136.24-0.95Q136.64-0.95 137.04-1.1 137.44-1.25 137.44-1.5L137.44-1.5 137.44-36Z" opacity="1" transform="matrix(1,0,0,1,0,0)" fill="#000000" class="wordmark-text-0" data-fill-palette-color="primary" id="text-0"></path></svg></g></svg></g></svg></g></svg></g><g><svg viewBox="0 0 119.08588105410458 143.39156348373555" height="143.39156348373555" width="119.08588105410458"><g><svg xmlns="http://www.w3.org/2000/svg" xmlns:xlink="http://www.w3.org/1999/xlink" version="1.1" x="0" y="0" viewBox="11.807962343100813 1.9706508429713698 80.52003765689919 96.95434915702864" enable-background="new 0 0 100 100" xml:space="preserve" height="143.39156348373555" width="119.08588105410458" class="icon-icon-0" data-fill-palette-color="accent" id="icon-0"><circle cx="46.898" cy="38.47" r="4.4" fill="#000000" data-fill-palette-color="accent"></circle><path d="M38.615 28.948L38.639 28.96C40.733 30.25 51.544 34.695 63.641 23.347 68.512 18.406 70.813 10.882 70.813 10.882S65.64 13.213 61.604 11.654C58.873 10.596 56.156 7.326 55.635 6.676 54.376 5.261 52.814 4.051 50.987 3.228 43.871-0.008 35.462 3.22 32.23 10.413 29.083 17.421 31.952 25.494 38.615 28.948" fill="#000000" data-fill-palette-color="accent"></path><path d="M82.765 64.106V53.079C82.765 43.374 75.576 33.864 64.217 33.864H58.588L46.942 59.755 35.294 33.864H30.356C18.998 33.864 11.808 43.374 11.808 53.079V92.316C11.784 101.104 23.24 101.104 23.24 92.316V54.009H26.832V98.903L34.014 98.908V98.925H53.955V98.904H92.328V64.106zM67.74 54.009H71.333V64.107H67.735zM55.259 67.659H71.333V81.553H65.304V76.704H61.073V81.553H55.26zM88.775 95.35H55.259V85.106H71.333V85.8C71.333 94.588 82.788 94.588 82.765 85.8V85.106H88.776zM88.775 81.553H82.764V67.659H88.775z" fill="#000000" data-fill-palette-color="accent"></path></svg></g></svg></g></svg></g><defs></defs></svg><rect width="395.52" height="105.20162887142207" fill="none" stroke="none" visibility="hidden"></rect></g></svg></g></svg>